<svg version="1.2" xmlns="http://www.w3.org/2000/svg" viewBox="0 0 400 200" width="400" height="200">
	<style>
		.s0 { fill: #000000 } 
	</style>
	<g id="Layer 1">
		<path id="ElmichiYT" class="s0" aria-label="ElmichiYT"  d="m60 120h-33.8q0 0 0 0 0 0 0 0v-57.3q0 0 0 0 0 0 0 0h33.3q0 0 0 0 0 0 0 0v8.3q0 0 0 0 0 0 0 0h-24.6v40.8h25.1q0 0 0 0 0 0 0 0v8.2q0 0 0 0 0 0 0 0zm-1.7-24.8h-27.4v-7.7h27.4q0 0-0.1 0 0.1 0 0.1 0v7.7q0 0-0.1 0 0.1 0 0.1 0zm20.4 24.8h-8.7q0 0 0 0 0 0 0 0v-57.3q0 0 0 0 0 0 0 0h8.7q0 0-0.1 0 0.1 0 0.1 0v57.3q0 0-0.1 0 0.1 0 0.1 0zm19 0h-8.7q0 0 0 0 0 0 0 0v-40.9q0 0 0 0 0 0 0 0h8.3q0 0 0 0 0 0 0 0v7l-0.8-1h1q1.8-3.2 5.3-5.3 3.7-2 7.6-2 4.4 0 7.7 2.1 3.4 2 4.9 5.7 2.3-3.9 6-5.8 3.6-2 8-2 7.1 0 10.8 4.2 3.7 4.2 3.7 11.8v26.2q0 0-0.1 0 0.1 0 0.1 0h-8.7q0 0 0 0 0 0 0 0v-24.8q0-5-2-7.4-2.1-2.5-6.4-2.5-4.2 0-7 3.4-2.8 3.4-2.8 8.3v23q0 0 0 0 0 0 0 0h-8.7q0 0-0.1 0 0.1 0 0.1 0v-24.7q0-5.1-2.1-7.5-2.1-2.5-6.3-2.5-4.2 0-7 3.5-2.8 3.4-2.8 8.3v22.9q0 0-0.1 0 0.1 0 0.1 0zm72.5 0h-8.7q0 0-0.1 0 0.1 0 0.1 0v-40.9q0 0-0.1 0 0.1 0 0.1 0h8.7q0 0 0 0 0 0 0 0v40.9q0 0 0 0 0 0 0 0zm-4.4-48.7q-2.2 0-3.8-1.6-1.6-1.6-1.6-3.8 0-2.3 1.6-3.8 1.6-1.5 3.8-1.5 2.3 0 3.8 1.5 1.6 1.5 1.6 3.8 0 2.2-1.6 3.8-1.5 1.6-3.8 1.6zm33.9 50q-9.1 0-15.1-6.1-5.9-6.2-5.9-15.8 0-9.6 5.9-15.6 6-6 15.2-6 3.9 0 7.2 1.1 3.4 1.1 6.1 3.6 2.8 2.4 4.8 7 0 0 0 0 0 0 0 0l-7.4 3q0 0 0 0.1 0-0.1 0-0.1-1.4-2.8-2.9-4.3-1.5-1.5-3.6-2.2-2-0.6-4.3-0.6-5.2 0-8.9 3.8-3.6 3.9-3.6 10.2 0 6.3 3.6 10.3 3.6 4 8.9 4 2.3 0 4.4-0.7 2.1-0.7 3.5-2 1.5-1.4 3.3-4.5 0 0-0.1 0 0.1 0 0.1 0l7.3 3q0 0 0 0 0 0 0 0-2.3 4.7-5 7.1-2.6 2.3-6 3.5-3.4 1.2-7.5 1.2zm34-1.3h-8.7q0 0 0 0 0 0 0 0v-57.3q0 0 0 0 0 0 0 0h8.6q0 0 0 0 0 0 0 0v22.4h0.3q1.7-3.3 5.3-5.3 3.5-2 7.7-2 7.1 0 11 4.2 4 4.2 4 11.5v26.5q0 0 0 0 0 0 0 0h-8.7q0 0 0 0 0 0 0 0v-24.8q0-4.8-2.4-7.4-2.3-2.5-6.7-2.5-4.3 0-7.3 3.6-3.1 3.5-3.1 8.3v22.8q0 0-0.1 0 0.1 0 0.1 0zm46.5 0h-8.7q0 0-0.1 0 0.1 0 0.1 0v-40.9q0 0-0.1 0 0.1 0 0.1 0h8.7q0 0 0 0 0 0 0 0v40.9q0 0 0 0 0 0 0 0zm-4.4-48.7q-2.2 0-3.8-1.6-1.6-1.6-1.6-3.8 0-2.3 1.6-3.8 1.6-1.5 3.8-1.5 2.3 0 3.8 1.5 1.6 1.5 1.6 3.8 0 2.2-1.6 3.8-1.5 1.6-3.8 1.6zm38.1 23.3l-8 0.1-20.1-32q0 0 0 0 0 0 0 0h10.3q0 0-0.1 0 0.1 0 0.1 0l12.1 20.4 1.6 2.8h0.3l1.6-2.7 12.1-20.5q0 0 0 0 0 0 0 0h9.9q0 0 0 0 0 0 0 0zm0.4 25.4h-8.7q0 0 0 0 0 0 0 0v-29.3h8.7v29.3q0 0 0 0 0 0 0 0zm47.3 0h-8.8q0 0 0 0 0 0 0 0v-53.1h8.8v53.1q0 0 0 0 0 0 0 0zm15.8-49h-40.4q0 0 0 0 0 0 0 0v-8.3q0 0 0 0 0 0 0 0h40.4q0 0 0 0 0 0 0 0v8.3q0 0 0 0 0 0 0 0z"/>
		<path id="LABS" class="s0" aria-label="LABS"  d="m278.9 163h-20.2q0 0 0 0 0 0 0 0v-34.4q0 0 0 0 0 0 0 0h5.3q0 0 0 0 0 0 0 0v29.5h14.9q0 0-0.1 0 0.1 0 0.1 0v4.9q0 0-0.1 0 0.1 0 0.1 0zm7.3 0h-5.6q0 0 0 0 0 0 0 0l13.1-34.4q0 0 0 0 0 0 0 0h5.4q0 0 0 0 0 0 0 0l13 34.4q0 0 0 0 0 0 0 0h-5.7q0 0 0 0 0 0 0 0l-8.6-24-1.4-4.2h-0.1l-1.4 4.2-8.7 24q0 0 0 0 0 0 0 0zm19.2-8.5h-19l1.6-4.4h15.8zm25.1 8.5h-13.8q0 0 0 0 0 0 0 0v-34.4q0 0 0 0 0 0 0 0h13.1q4.2 0 7 2.6 3 2.6 3 6.6 0 2.5-1.3 4.4-1.3 1.9-3.5 3v0.1q2.6 0.9 4.3 3 1.6 2.1 1.6 4.9 0 4.2-3 7-3 2.8-7.4 2.8zm-8.6-29.7v25.1h8.3q2.3 0 3.8-1.6 1.6-1.6 1.6-3.8 0-2.3-1.6-3.8-1.7-1.6-4-1.6h-10v-4.3h9.3q2.3 0 3.8-1.5 1.5-1.5 1.5-3.5 0-2.1-1.5-3.5-1.4-1.5-3.6-1.5zm34.7 30.5q-3.1 0-5.5-1-2.3-1-3.8-2.7-1.5-1.8-2.3-3.7-0.8-1.9-0.8-1.9 0 0 0 0l4.8-1.9q0 0 0 0 0 0 0.6 1.4 0.6 1.5 1.6 2.7 1 1.1 2.4 1.8 1.5 0.6 3.3 0.6 2.8 0 4.6-1.5 1.8-1.5 1.8-3.9 0-2-1.7-3.4-1.6-1.5-6.1-3-5.6-1.9-7.8-4.3-2.2-2.4-2.2-5.8 0-4 3.1-6.7 3.1-2.7 7.9-2.7 2.6 0 4.7 0.8 2.1 0.8 3.5 2.2 1.5 1.4 2.1 2.8 0.7 1.3 0.7 1.3 0 0 0 0l-4.6 2q0 0 0 0 0 0-0.4-0.8-0.4-0.9-1.3-1.8-0.9-0.9-2.1-1.3-1.2-0.5-2.7-0.5-2.5 0-4.1 1.2-1.6 1.3-1.6 3.2 0 1.7 1.3 3 1.3 1.3 6.7 3.1 4.9 1.6 7.3 4.2 2.4 2.6 2.4 6.4 0 4.7-3.3 7.5-3.4 2.7-8.5 2.7z"/>
	</g>
</svg>