# Made in Blockbench 5.1.3
mtllib materials.mtl

o mesh
v 1.46875 0 1.46875
v 1.46875 0 -1.46875
v 1.46875 -0.0625 1.46875
v 1.46875 -0.0625 -1.46875
v -1.46875 0 1.46875
v -1.46875 0 -1.46875
v -1.46875 -0.0625 1.46875
v -1.46875 -0.0625 -1.46875
vt 0.78662109375 0.2578124999999999
vt 0.7578125 0.2578124999999999
vt 0.7578125 0.11376953125000011
vt 0.78662109375 0.11376953125000011
vt 0.6303710937499998 0.02783203125000011
vt 0.6303710937499998 0.171875
vt 0.6015624999999998 0.171875
vt 0.6015624999999998 0.02783203125000011
vt 0 0
vt 0.95068359375 0
vt 0.95068359375 0.9506835937499999
vt 0 0.9506835937499999
vt 0.19287109374999997 0.18212890625
vt 0.19287109374999997 0.2734375
vt 0.14062499999999994 0.2734375
vt 0.14062499999999994 0.18212890625
vt 0.43505859375 0
vt 0.43505859375 0.14404296875
vt 0.40625 0.14404296875
vt 0.40625 0
vt 0.9350585937499999 0.2456054687499999
vt 0.8984375000000001 0.2456054687499999
vt 0.8984375000000001 0.10156250000000011
vt 0.9350585937499999 0.10156250000000011
vn 1 0 0
vn -1 0 0
vn 0 1 0
vn 0 -1 0
vn 0 0 1
vn 0 0 -1
usemtl m_7592524e-70a0-cd2e-8e5d-b6bf64c01a63
f 2/1/1 1/2/1 3/3/1 4/4/1
f 7/5/2 5/6/2 6/7/2 8/8/2
f 5/9/3 1/10/3 2/11/3 6/12/3
f 4/13/4 3/14/4 7/15/4 8/16/4
f 3/17/5 1/18/5 5/19/5 7/20/5
f 6/21/6 2/22/6 4/23/6 8/24/6
o plane
v 1.3750000000000002 -0.031249999999996003 1.4687500000000002
v 1.3750000000000002 0.406250000000004 1.4687499999999998
v 1.375 -0.031250000000000056 -1.4687499999999998
v 1.3749999999999998 0.40624999999999994 -1.4687500000000002
vt 1.0019938151041665 0.006860351562500089
vt 1.0019938151041665 1
vt 0 1
vt 0 0.006860351562500089
vn -1 -5.5511151231257667e-17 1.1102230246251573e-16
usemtl m_7592524e-70a0-cd2e-8e5d-b6bf64c01a63
f 9/25/7 10/26/7 12/27/7 11/28/7
o plane
v 1.40625 -0.03125 1.375
v 1.40625 0.40625 1.375
v -1.40625 -0.03125 1.375
v -1.40625 0.40625 1.375
vt 1.0045979817708335 -0.001472981770833215
vt 1.0045979817708335 1
vt 0 1
vt 0 -0.001472981770833215
vn 0 2.220446049250313e-16 1
usemtl m_7592524e-70a0-cd2e-8e5d-b6bf64c01a63
f 13/29/8 14/30/8 16/31/8 15/32/8
o plane
v -1.3749999999999998 -0.031249999999996003 1.4687500000000002
v -1.3749999999999998 0.406250000000004 1.4687499999999998
v -1.375 -0.031250000000000056 -1.4687499999999998
v -1.3750000000000002 0.40624999999999994 -1.4687500000000002
vt 1.0019938151041665 0.006860351562500089
vt 1.0019938151041665 1
vt 0 1
vt 0 0.006860351562500089
vn -1 -5.5511151231257667e-17 1.1102230246251573e-16
usemtl m_7592524e-70a0-cd2e-8e5d-b6bf64c01a63
f 17/33/9 18/34/9 20/35/9 19/36/9
o plane
v 1.40625 -0.03125 -1.4375
v 1.40625 0.40625 -1.4375
v -1.40625 -0.03125 -1.4375
v -1.40625 0.40625 -1.4375
vt 1.0045979817708335 -0.001472981770833215
vt 1.0045979817708335 1
vt 0 1
vt 0 -0.001472981770833215
vn 0 2.220446049250313e-16 1
usemtl m_7592524e-70a0-cd2e-8e5d-b6bf64c01a63
f 21/37/10 22/38/10 24/39/10 23/40/10
o plane
v 0.2789906019919739 0.11424872225642205 0.09375
v 0.2789906019919739 0.11424872225642205 -0.09375
v -0.9039906019919739 0.010751277743577953 0.09375
v -0.9039906019919739 0.010751277743577953 -0.09375
vt 0.0072021484375 0.9927978515625
vt 0.0072021484375 1
vt 0 1
vt 0 0.9927978515625
vn -0.08715574274765818 0.9961946980917455 0
usemtl none
f 25/41/11 26/42/11 28/43/11 27/44/11