<svg version="1.2" xmlns="http://www.w3.org/2000/svg" viewBox="0 0 480 144" width="480" height="144">
	<style>
		.s0 { fill: #000000 } 
	</style>
	<g id="Layer 1">
		<path id="ElmichiYT LABS" class="s0" aria-label="ElmichiYT LABS"  d="m44 97h-27q0 0 0 0 0 0 0 0v-45.8q0 0 0 0 0 0 0 0h26.6q0 0 0 0 0 0 0 0v6.6q0 0 0 0 0 0 0 0h-19.7v32.6h20.1q0 0 0 0 0 0 0 0v6.6q0 0 0 0 0 0 0 0zm-1.4-19.8h-21.9v-6.2h21.9q0 0 0 0 0 0 0 0v6.2q0 0 0 0 0 0 0 0zm16.3 19.8h-6.9q0 0 0 0 0 0 0 0v-45.8q0 0 0 0 0 0 0 0h6.9q0 0 0 0 0 0 0 0v45.8q0 0 0 0 0 0 0 0zm15 0h-6.9q0 0 0 0 0 0 0 0v-32.7q0 0 0 0 0 0 0 0h6.6q0 0 0 0 0 0 0 0v5.6l-0.6-0.8h0.8q1.4-2.6 4.3-4.2 2.9-1.7 6.1-1.7 3.5 0 6.1 1.7 2.7 1.6 3.9 4.5 1.9-3 4.8-4.6 2.9-1.6 6.4-1.6 5.7 0 8.6 3.4 3 3.3 3 9.4v21q0 0 0 0 0 0 0 0h-6.9q0 0-0.1 0 0.1 0 0.1 0v-19.8q0-4.1-1.7-6-1.6-2-5.1-2-3.3 0-5.6 2.8-2.2 2.7-2.2 6.6v18.4q0 0-0.1 0 0.1 0 0.1 0h-7q0 0 0 0 0 0 0 0v-19.8q0-4-1.7-6-1.6-2-5-2-3.4 0-5.6 2.8-2.3 2.8-2.3 6.7v18.3q0 0 0 0 0 0 0 0zm58.4 0h-6.9q0 0 0 0 0 0 0 0v-32.7q0 0 0 0 0 0 0 0h6.9q0 0 0 0 0 0 0 0v32.7q0 0 0 0 0 0 0 0zm-3.4-39q-1.8 0-3.1-1.2-1.3-1.3-1.3-3.1 0-1.8 1.3-3 1.3-1.2 3.1-1.2 1.8 0 3 1.2 1.2 1.2 1.2 3 0 1.8-1.2 3.1-1.2 1.2-3 1.2zm27.1 40.1q-7.3 0-12.1-5-4.8-4.9-4.8-12.6 0-7.6 4.8-12.4 4.8-4.9 12.1-4.9 3.1 0 5.8 0.9 2.7 0.9 4.9 2.9 2.2 2 3.8 5.6 0 0 0 0 0 0 0 0l-5.9 2.4q0 0 0 0 0 0 0 0-1.1-2.3-2.4-3.4-1.2-1.2-2.8-1.8-1.6-0.5-3.5-0.5-4.1 0-7 3.1-2.9 3.1-2.9 8.1 0 5.1 2.8 8.3 3 3.2 7.1 3.2 1.9 0 3.6-0.6 1.6-0.6 2.8-1.6 1.2-1.1 2.6-3.6 0 0 0 0 0 0 0 0l5.9 2.4q0 0 0 0 0 0 0 0-1.9 3.8-4 5.7-2.1 1.8-4.8 2.8-2.8 1-6 1zm26.9-1.1h-6.9q0 0 0 0 0 0 0 0v-45.8q0 0 0 0 0 0 0 0h6.9q0 0 0 0 0 0 0 0v17.9h0.2q1.4-2.6 4.2-4.2 2.9-1.7 6.2-1.7 5.7 0 8.8 3.4 3.2 3.4 3.2 9.2v21.2q0 0 0 0 0 0 0 0h-6.9q0 0 0 0 0 0 0 0v-19.9q0-3.8-1.9-5.8-1.9-2.1-5.4-2.1-3.4 0-5.9 2.9-2.5 2.9-2.5 6.7v18.2q0 0 0 0 0 0 0 0zm37.4 0h-6.9q0 0 0 0 0 0 0 0v-32.7q0 0 0 0 0 0 0 0h6.9q0 0 0 0 0 0 0 0v32.7q0 0 0 0 0 0 0 0zm-3.4-39q-1.8 0-3.1-1.2-1.3-1.3-1.3-3.1 0-1.8 1.3-3 1.3-1.2 3.1-1.2 1.8 0 3 1.2 1.2 1.2 1.2 3 0 1.8-1.2 3.1-1.2 1.2-3 1.2zm30.2 18.7h-6.4l-16-25.5q0 0-0.1 0 0.1 0 0.1 0h8.2q0 0-0.1 0 0.1 0 0.1 0l9.7 16.3 1.3 2.2h0.2l1.2-2.2 9.8-16.3q0 0-0.1 0 0.1 0 0.1 0h7.9q0 0 0 0 0 0 0 0zm0.3 20.3h-7q0 0 0 0 0 0 0 0v-23.5h7v23.5q0 0 0 0 0 0 0 0zm37.8 0h-7q0 0 0 0 0 0 0 0v-42.5h7v42.5q0 0 0 0 0 0 0 0zm12.7-39.3h-32.4q0 0 0 0 0 0 0 0v-6.5q0 0 0 0 0 0 0 0h32.4q0 0 0 0 0 0 0 0v6.5q0 0 0 0 0 0 0 0zm47.9 39.3h-26.8q0 0-0.1 0 0.1 0 0.1 0v-45.8q0 0-0.1 0 0.1 0 0.1 0h6.9q0 0 0 0 0 0 0 0v39.2h19.9q0 0-0.1 0 0.1 0 0.1 0v6.6q0 0-0.1 0 0.1 0 0.1 0zm10.5 0h-7.6q0 0 0 0 0 0 0 0l17.5-45.8q0 0 0 0 0 0 0 0h7.2q0 0 0 0 0 0 0 0l17.4 45.8q0 0 0 0 0 0 0 0h-7.7q0 0 0 0 0 0 0 0l-11.4-32.1-1.8-5.6h-0.2l-1.8 5.6-11.6 32.1q0 0 0 0 0 0 0 0zm25.6-11.4h-25.4l2.2-5.9h21zm32.5 11.4h-18.4q0 0-0.1 0 0.1 0 0.1 0v-45.8q0 0-0.1 0 0.1 0 0.1 0h17.4q5.6 0 9.4 3.5 3.9 3.4 3.9 8.7 0 3.4-1.7 5.9-1.7 2.6-4.6 3.9v0.3q3.5 1.1 5.7 3.9 2.2 2.8 2.2 6.6 0 5.5-4 9.3-4 3.7-9.9 3.7zm-11.4-39.6v33.5h10.9q3.1 0 5.2-2.1 2.1-2.2 2.1-5.2 0-3-2.2-5-2.2-2.1-5.3-2.1h-13.3v-5.8h12.4q3 0 5-1.9 2.1-2 2.1-4.7 0-2.8-2-4.7-2-2-4.9-2zm46.2 40.7q-4 0-7.2-1.3-3.1-1.4-5.1-3.7-2.1-2.3-3.1-4.9-1-2.5-1-2.5 0 0 0 0l6.3-2.6q0 0 0 0 0 0 0.8 1.9 0.8 2 2.1 3.6 1.4 1.5 3.3 2.4 2 0.8 4.4 0.8 3.8 0 6.1-2 2.4-2 2.4-5.2 0-2.6-2.2-4.6-2.1-1.9-8.2-4-7.4-2.4-10.4-5.6-2.9-3.2-2.9-7.8 0-5.3 4.1-8.9 4.1-3.6 10.6-3.6 3.5 0 6.2 1.1 2.8 1 4.7 2.9 2 1.9 2.8 3.7 0.9 1.8 0.9 1.8 0 0 0 0l-6.1 2.6q0 0 0 0 0 0-0.6-1.1-0.5-1.1-1.7-2.3-1.2-1.2-2.8-1.8-1.6-0.6-3.6-0.6-3.4 0-5.5 1.6-2.1 1.6-2.1 4.3 0 2.2 1.8 3.9 1.7 1.7 8.9 4.1 6.6 2.1 9.8 5.7 3.2 3.5 3.2 8.4 0 6.3-4.5 10-4.4 3.7-11.4 3.7z"/>
	</g>
</svg>