<svg xmlns="http://www.w3.org/2000/svg" width="1024" height="1024" fill="none" viewBox="0 0 1024 1024"><path fill="#335fff" d="M0 365.856c0-128.061 0-192.092 24.923-241.005a228.66 228.66 0 0 1 99.928-99.928C173.764 0 237.795 0 365.856 0h292.288c128.061 0 192.092 0 241.005 24.923a228.66 228.66 0 0 1 99.929 99.928C1024 173.764 1024 237.795 1024 365.856v292.288c0 128.061 0 192.092-24.922 241.005a228.66 228.66 0 0 1-99.929 99.929C850.236 1024 786.205 1024 658.144 1024H365.856c-128.061 0-192.092 0-241.005-24.922a228.66 228.66 0 0 1-99.928-99.929C0 850.236 0 786.205 0 658.144z"/><path fill="#fff" d="m307.201 157.281-149.92 559.518 559.518 149.92 149.92-559.518zm262.041 453.876-156.349-41.915 41.914-156.349 156.412 41.914z"/></svg>